<svg xmlns="http://www.w3.org/2000/svg" viewBox="0 0 180 65"><path d="M282.9,116.6v65h180v-65Zm156.56,7.69h13.28v33H439.46ZM324.22,173.74H311V155.3h-5v18.44H292.53V124.53H306v17.26H311V124.53h13.18Zm27.63-37.43H340.66v5.89h10.2v12.21h-10.2v6.3h11.19v13H327.48V124.46h24.37Zm23.9,37.5H354.34V124.46h13.44v36.42h8Zm24.91,0H379.15V124.46h13.61v36.42h7.9Zm2.41-14.69V137.37c-1.24-18.1,33.78-18.17,32.36.07v21.68h0C437.56,179.49,401.09,179.43,403.07,159.12Zm43.13,15.27c-9.1.06-9.16-13.88,0-13.75C455.28,160.59,455.36,174.45,446.2,174.39Z" transform="translate(-282.9 -116.6)" style="fill:red"/><path d="M419.38,135.49c-1.32,0-2.65,1-2.65,3.16v19.16c0,2.25,1.33,3.41,2.65,3.41s2.66-1.09,2.66-3.41V138.65A2.76,2.76,0,0,0,419.38,135.49Z" transform="translate(-282.9 -116.6)" style="fill:red"/></svg>