<svg xmlns="http://www.w3.org/2000/svg" viewBox="0 0 27 27"><path d="M13.47,1A13.5,13.5,0,1,0,27,14.47,13.49,13.49,0,0,0,13.47,1Zm4.45,2c-.26.12-.53.26-.79.37a9.3,9.3,0,0,1-3.1.57L12.37,4a.37.37,0,0,1-.32.34.38.38,0,0,1-.39-.28,2.16,2.16,0,0,1-1.86.33.33.33,0,0,1,.51-.23.68.68,0,0,0-.49-.77,2,2,0,0,0-1,0,3.22,3.22,0,0,0-1.1.35,1.19,1.19,0,0,0-.62.93l2.1-.91-1.11,1a1.21,1.21,0,0,1-.78.4c-.3,0-.56-.4-.35-.62A3.26,3.26,0,0,1,5.58,5a12.35,12.35,0,0,1,12.34-2ZM4.26,6.24a1,1,0,0,1,1,1.45l.66-.07L6,8l.63,0a1.15,1.15,0,0,1-2,.74c-.22.13-.48-.15-.49-.41a4.78,4.78,0,0,0,0-.75.72.72,0,0,0-.62-.53A9,9,0,0,1,4.26,6.24ZM15.92,26.58a.59.59,0,0,0,0-.37,1.49,1.49,0,0,0,.63-.05,1.47,1.47,0,0,0,.56-.31,1.08,1.08,0,0,0-.45-1.22,3.19,3.19,0,0,0-1.32-.45,10.06,10.06,0,0,0-3,.05,3.62,3.62,0,0,0-2.38.93,2,2,0,0,0-.45,1,12.38,12.38,0,0,1-8.38-11.7,12.5,12.5,0,0,1,.12-1.74.78.78,0,0,0,.62.34l.77,3.19A10.45,10.45,0,0,0,4.06,20a1.36,1.36,0,0,0,.65.54A1,1,0,0,0,5.8,19.9,3.51,3.51,0,0,0,6,18.53a10.81,10.81,0,0,1,1.75-5.9c-.46.16-1.06.29-1.35-.1a1.18,1.18,0,0,1-.18-.62L6,9.67a8.16,8.16,0,0,1,.67,2.74,4.06,4.06,0,0,0,2-.86A.78.78,0,0,0,9,11c0-.59-1.06-.61-1.19-1.19,0,.1,1.79.64,2,.77.6.35.78,1.1,1.08,1.7a4.48,4.48,0,0,0,.27.69.47.47,0,0,0,.45.23c.39-.05.64-1,.81-1.32.33-.63.7-1,1.2-.39a9.69,9.69,0,0,1,1.27,1.79c.23.49.3,1.15,1,1.12.08,0-.45-.8-.49-.85a4.12,4.12,0,0,1-.57-1,1.26,1.26,0,0,0,.87.53.75.75,0,0,0,.8-.53.54.54,0,0,0-.6-.64.43.43,0,0,1,.28-.51,3.32,3.32,0,0,1,.63-.11,1.26,1.26,0,0,0,.75-1.82c-.22-.33-.61-.73-.36-1a.45.45,0,0,1,.62,0,1,1,0,0,1,.28.63L18.32,9a4.3,4.3,0,0,0-.08-2.88c-.13-.25-.31-.54-.16-.77s.24-.2.36-.3.19-.32.06-.41l.41,0A1.47,1.47,0,0,0,20,6.15a14.3,14.3,0,0,1-.71-2.56,12.35,12.35,0,0,1-3.41,23Z" transform="translate(0.03 -0.97)" style="fill:#fff"/></svg>