<svg xmlns="http://www.w3.org/2000/svg" viewBox="0 0 40 40" preserveAspectRatio="none meet" width="40" height="40"><path d="M20,15.24a4.82,4.82,0,0,0-2.65.8,4.77,4.77,0,0,0-2,4.89,4.89,4.89,0,0,0,1.3,2.44A4.77,4.77,0,0,0,24,22.65a4.74,4.74,0,0,0,.8-2.65A4.75,4.75,0,0,0,20,15.24Zm11.13-3.66a4.62,4.62,0,0,0-1.07-1.64,4.83,4.83,0,0,0-1.64-1.08c-1.88-.74-6.34-.57-8.42-.57s-6.54-.17-8.42.57a4.87,4.87,0,0,0-2.72,2.72c-.73,1.87-.57,6.34-.57,8.42s-.16,6.54.58,8.42a4.81,4.81,0,0,0,2.71,2.72c1.88.74,6.34.57,8.42.57s6.54.17,8.42-.57a4.64,4.64,0,0,0,1.64-1.08,4.73,4.73,0,0,0,1.08-1.64c.74-1.87.57-6.34.57-8.42s.17-6.54-.57-8.42ZM20,27.32a7.29,7.29,0,0,1-6.76-4.52,7.32,7.32,0,0,1,12.85-6.87A7.37,7.37,0,0,1,27.32,20a7.47,7.47,0,0,1-.55,2.8,7.33,7.33,0,0,1-4,4A7.47,7.47,0,0,1,20,27.32Zm7.62-13.24a1.71,1.71,0,0,1-.95-.29,1.71,1.71,0,1,1,2.66-1.42,1.69,1.69,0,0,1-.5,1.21,1.49,1.49,0,0,1-.55.37,1.64,1.64,0,0,1-.65.13ZM35.71,0H4.29A4.3,4.3,0,0,0,0,4.29V35.71A4.3,4.3,0,0,0,4.29,40H35.71A4.3,4.3,0,0,0,40,35.71V4.29A4.3,4.3,0,0,0,35.71,0ZM34.19,25.89a8.54,8.54,0,0,1-2.31,6,8.53,8.53,0,0,1-6,2.3c-2.36.14-9.43.14-11.79,0a8.51,8.51,0,0,1-6-2.3,8.46,8.46,0,0,1-2.31-6c-.13-2.36-.13-9.43,0-11.78a8.42,8.42,0,0,1,2.31-6,8.49,8.49,0,0,1,6-2.31c2.36-.13,9.43-.13,11.79,0a8.54,8.54,0,0,1,6,2.31,8.54,8.54,0,0,1,2.31,6C34.32,16.47,34.32,23.53,34.19,25.89Z"/></svg>