<svg xmlns="http://www.w3.org/2000/svg" viewBox="0 0 100% 100%" preserveAspectRatio="none" width="100%" height="100%"><path d="M36.22.29H4.8A4.31,4.31,0,0,0,.51,4.58V36A4.3,4.3,0,0,0,4.8,40.29H36.22A4.29,4.29,0,0,0,40.51,36V4.58A4.3,4.3,0,0,0,36.22.29ZM14.39,5.81A8.43,8.43,0,0,1,20.5,3.33a8.41,8.41,0,0,1,6.11,2.44,8,8,0,0,1,2.54,6,8,8,0,0,1-2.54,6,8.43,8.43,0,0,1-6.11,2.48,8.43,8.43,0,0,1-6.11-2.48,8,8,0,0,1-2.54-6A8,8,0,0,1,14.39,5.81ZM30.51,23.16a8.75,8.75,0,0,1-2.32,1.92,14,14,0,0,1-6,1.74l1.39,1.36,5.1,5a1.84,1.84,0,0,1,.59,1.36,1.86,1.86,0,0,1-.59,1.37l-.24.23a2,2,0,0,1-2.8,0c-1.38-1.35-3.1-3-5.1-5l-5.1,5a2,2,0,0,1-2.8,0l-.24-.23a1.82,1.82,0,0,1-.59-1.37,1.8,1.8,0,0,1,.59-1.36l5.09-5,1.37-1.36a13.88,13.88,0,0,1-6-1.74,8.75,8.75,0,0,1-2.32-1.92,1.79,1.79,0,0,1,0-1.94,2.22,2.22,0,0,1,.75-.83,2,2,0,0,1,1.27-.25,3.15,3.15,0,0,1,1.61.72l.72.47a10,10,0,0,0,2.3.94,11.6,11.6,0,0,0,3.31.46,11.16,11.16,0,0,0,3.39-.52,11.08,11.08,0,0,0,2.16-.83c.34-.21.6-.38.78-.52a3.15,3.15,0,0,1,1.61-.72,2,2,0,0,1,1.27.25,2.22,2.22,0,0,1,.75.83A1.81,1.81,0,0,1,30.51,23.16Z" transform="translate(-0.51 -0.29)"/><path d="M23.5,14.7a3.91,3.91,0,0,0,1.24-2.93A4,4,0,0,0,23.5,8.84a4.31,4.31,0,0,0-6,0,4,4,0,0,0-1.24,2.93A3.91,3.91,0,0,0,17.5,14.7,4.31,4.31,0,0,0,23.5,14.7Z" transform="translate(-0.51 -0.29)"/></svg>