<svg xmlns="http://www.w3.org/2000/svg" viewBox="0 0 40 40" preserveAspectRatio="none meet" width="40" height="40"><path d="M35.62,40H5.27C.55,40,0,37.82,0,33.21V6.89C0,2.29.53,0,5.24,0H35.92C40.64,0,41,3.85,41,8.45V33.29C41,37.89,40.34,40,35.62,40Zm-7.85-8.58a1.38,1.38,0,0,0,1.26.16,1.3,1.3,0,0,0,.83-.93c1-4.54,3.39-16,4.29-20.15a.89.89,0,0,0-.3-.85,1,1,0,0,0-.91-.15c-4.77,1.72-19.48,7.11-25.49,9.28a.9.9,0,0,0,.06,1.73c2.69.79,6.23,1.89,6.23,1.89s1.66,4.87,2.52,7.35a1,1,0,0,0,.68.64,1,1,0,0,0,.93-.23l3.53-3.25S25.46,29.82,27.77,31.42ZM15.23,21.78l1.91,6.15L17.57,24l11.6-10.21a.31.31,0,0,0,0-.42.33.33,0,0,0-.43-.07Z" style="fill-rule:evenodd"/></svg>