<svg xmlns="http://www.w3.org/2000/svg" viewBox="0 0 100% 100%" preserveAspectRatio="none" width="100%" height="100%"><path d="M31,14.72a9.8,9.8,0,0,0,2.59-2.78,11.48,11.48,0,0,1-2.87.84,5.74,5.74,0,0,0,2.22-3,11.08,11.08,0,0,1-3.42,1.3,4.45,4.45,0,0,0-2.87-1.53,5.9,5.9,0,0,0-3.29.47,5.29,5.29,0,0,0-2.45,2.31,4.72,4.72,0,0,0-.47,3.57A15.87,15.87,0,0,1,9.54,10.46a5.2,5.2,0,0,0-.42,4,4.83,4.83,0,0,0,2,3,6.78,6.78,0,0,1-2.22-.65A5.29,5.29,0,0,0,13,22.13a5.37,5.37,0,0,1-2.22.09,5.26,5.26,0,0,0,4.91,3.71A9.07,9.07,0,0,1,12,27.73a10.43,10.43,0,0,1-4.17.33,14.73,14.73,0,0,0,8.52,2.4A14.63,14.63,0,0,0,26.9,25.88,16,16,0,0,0,31,14.72ZM35.56.28a3.8,3.8,0,0,1,2.82,1.16,3.74,3.74,0,0,1,1.16,2.73V35.83a3.74,3.74,0,0,1-1.16,2.73,3.8,3.8,0,0,1-2.82,1.16H4a3.8,3.8,0,0,1-2.82-1.16A3.74,3.74,0,0,1,0,35.83V4.17A3.74,3.74,0,0,1,1.16,1.44,3.8,3.8,0,0,1,4,.28Z" transform="translate(0 -0.28)"/></svg>