<svg xmlns="http://www.w3.org/2000/svg" viewBox="0 0 40 40"  preserveAspectRatio="none meet" width="40" height="40"><path d="M36.25,0H3.75A3.76,3.76,0,0,0,0,3.75v32.5A3.76,3.76,0,0,0,3.75,40h32.5A3.76,3.76,0,0,0,40,36.25V3.75A3.76,3.76,0,0,0,36.25,0ZM32.76,27.34,29,27.4a2.73,2.73,0,0,1-1.87-.56c-1.4-.94-2.72-3.38-3.75-3.06s-1,2.51-1,2.51a1.24,1.24,0,0,1-.24.72,1.4,1.4,0,0,1-.77.33H19.7a9.7,9.7,0,0,1-7-3.1C9.19,20.63,6.05,13.47,6.05,13.47s-.19-.47,0-.69a1.45,1.45,0,0,1,.83-.28h4a1.74,1.74,0,0,1,.65.26,1.11,1.11,0,0,1,.34.46,24.7,24.7,0,0,0,1.51,3c1.67,2.82,2.46,3.43,3,3.14.82-.44.57-4,.57-4a4,4,0,0,0-.4-1.88,1.94,1.94,0,0,0-1.24-.61c-.23,0,.14-.54.62-.77a9.4,9.4,0,0,1,3.5-.35,7.5,7.5,0,0,1,2,.19c1.39.32.92,1.58.92,4.6,0,1-.18,2.33.53,2.77.31.2,1.06,0,2.94-3.09a23.09,23.09,0,0,0,1.56-3.2,1.15,1.15,0,0,1,.37-.45,1,1,0,0,1,.55-.09h4.22s1.26-.14,1.47.42-.47,2-2.19,4.19c-2.83,3.68-3.15,3.34-.8,5.47a12.49,12.49,0,0,1,2.79,3.14c.92,1.5-1,1.62-1,1.62Z" transform="translate(0 0)"/></svg>