<svg xmlns="http://www.w3.org/2000/svg" viewBox="0 0 100% 100%" preserveAspectRatio="none" width="100%" height="100%"><path d="M37.16,0H3.84A3.81,3.81,0,0,0,0,3.75v32.5A3.81,3.81,0,0,0,3.84,40H37.16A3.81,3.81,0,0,0,41,36.25V3.75A3.81,3.81,0,0,0,37.16,0ZM33.21,28l-3.75.06a2.75,2.75,0,0,1-1.87-.56c-1.4-.94-2.72-3.38-3.75-3.06s-1,2.51-1,2.51a1.2,1.2,0,0,1-.24.72,1.45,1.45,0,0,1-.77.33H20.15a9.74,9.74,0,0,1-7-3.1C9.64,21.29,6.5,14.13,6.5,14.13s-.19-.47,0-.69a1.42,1.42,0,0,1,.83-.28l4,0a1.7,1.7,0,0,1,.65.26,1.09,1.09,0,0,1,.34.46,26.18,26.18,0,0,0,1.51,3.05c1.67,2.82,2.46,3.43,3,3.14.82-.44.57-4,.57-4A3.87,3.87,0,0,0,17,14.19a1.92,1.92,0,0,0-1.24-.61c-.23,0,.14-.54.62-.77a9.31,9.31,0,0,1,3.5-.35,7.22,7.22,0,0,1,2,.19c1.39.32.92,1.58.92,4.6,0,1-.18,2.33.53,2.77.31.2,1.06,0,2.94-3.09a23.62,23.62,0,0,0,1.56-3.2,1.19,1.19,0,0,1,.37-.45,1,1,0,0,1,.55-.09l4.22,0s1.26-.14,1.47.42-.47,1.95-2.19,4.19c-2.83,3.68-3.15,3.34-.8,5.47a12.38,12.38,0,0,1,2.79,3.14c.92,1.5-1,1.62-1,1.62Z"/></svg>