<svg xmlns="http://www.w3.org/2000/svg" viewBox="0 0 100% 100%" preserveAspectRatio="none" width="100%" height="100%"><path d="M16.68,15.19,25.18,20l-8.5,4.83ZM40,4.29V35.71A4.29,4.29,0,0,1,35.71,40H4.29A4.29,4.29,0,0,1,0,35.71V4.29A4.29,4.29,0,0,1,4.29,0H35.71A4.29,4.29,0,0,1,40,4.29ZM36.25,20a42.9,42.9,0,0,0-.68-7.88A4.05,4.05,0,0,0,32.7,9.26C30.17,8.57,20,8.57,20,8.57s-10.17,0-12.7.69a4.05,4.05,0,0,0-2.87,2.89A42.84,42.84,0,0,0,3.75,20a42.75,42.75,0,0,0,.68,7.87A4,4,0,0,0,7.3,30.75c2.53.68,12.7.68,12.7.68s10.17,0,12.7-.69a4,4,0,0,0,2.87-2.85A42.6,42.6,0,0,0,36.25,20Z"/></svg>