<svg xmlns="http://www.w3.org/2000/svg" viewBox="0 0 700 700"><path d="M0,350V700H700V0H0ZM216.8,165.2,217,265h58V65H427V635H275l-.2-106.8-.3-106.7-28.7-.3L217,421V635H61V65l77.8.2,77.7.3ZM639,257.5V449H486V66H639ZM578,481.1c31.6,5.1,54.7,29,60,62.2,1.7,10.3.8,27-2,36.7a77.73,77.73,0,0,1-16.9,30.3c-15.4,16.3-31.9,22.9-58.1,23.1-16,.1-22.1-1.2-35.8-8-16.6-8.1-28.4-22.3-35.4-42.4-3.2-9.3-3.3-9.9-3.3-26.5s.1-17.2,3.3-26.5c9.1-26.1,28.3-43.4,54.1-48.5C552,479.9,569.3,479.7,578,481.1Z" transform="translate(0 0)"/></svg>