<?xml version="1.0" standalone="no"?>
<!DOCTYPE svg PUBLIC "-//W3C//DTD SVG 20010904//EN"
 "http://www.w3.org/TR/2001/REC-SVG-20010904/DTD/svg10.dtd">
<svg version="1.0" xmlns="http://www.w3.org/2000/svg"
 width="700.000000pt" height="700.000000pt" viewBox="0 0 700.000000 700.000000"
 preserveAspectRatio="xMidYMid meet">
<metadata>
Created by potrace 1.14, written by Peter Selinger 2001-2017
</metadata>
<g transform="translate(0.000000,700.000000) scale(0.100000,-0.100000)"
fill="#000000" stroke="none">
<path d="M0 3500 l0 -3500 3500 0 3500 0 0 3500 0 3500 -3500 0 -3500 0 0
-3500z m2168 1848 l2 -998 290 0 290 0 0 1000 0 1000 760 0 760 0 0 -2850 0
-2850 -760 0 -760 0 -2 1068 -3 1067 -287 3 -288 2 0 -1070 0 -1070 -780 0
-780 0 0 2850 0 2850 778 -2 777 -3 3 -997z m4222 -923 l0 -1915 -765 0 -765
0 0 1915 0 1915 765 0 765 0 0 -1915z m-610 -2236 c316 -51 547 -290 600 -622
17 -103 8 -270 -20 -367 -32 -111 -95 -224 -169 -303 -154 -163 -319 -229
-581 -231 -160 -1 -221 12 -358 80 -166 81 -284 223 -354 424 -32 93 -33 99
-33 265 0 166 1 172 33 265 91 261 283 434 541 485 81 16 254 18 341 4z"/>
</g>
</svg>
