<svg width="384" height="30" viewBox="0 0 384 30" fill="none" xmlns="http://www.w3.org/2000/svg">
<path d="M6.092 0.799998C8.06 0.799998 9.464 1.268 10.304 2.204C11.144 3.116 11.564 4.508 11.564 6.38V7.568C11.564 8.912 11.348 10.004 10.916 10.844C10.484 11.66 9.716 12.236 8.612 12.572C9.836 12.908 10.7 13.544 11.204 14.48C11.732 15.416 11.996 16.58 11.996 17.972V20.096C11.996 21.992 11.528 23.456 10.592 24.488C9.656 25.496 8.204 26 6.236 26H0.44V0.799998H6.092ZM5.408 11.492C6.536 11.492 7.376 11.264 7.928 10.808C8.504 10.352 8.792 9.464 8.792 8.144V6.668C8.792 5.54 8.576 4.712 8.144 4.184C7.736 3.632 7.028 3.356 6.02 3.356H3.248V11.492H5.408ZM6.236 23.444C8.228 23.444 9.224 22.304 9.224 20.024V17.792C9.224 16.376 8.936 15.404 8.36 14.876C7.808 14.324 6.92 14.048 5.696 14.048H3.248V23.444H6.236ZM14.3217 6.884C14.3217 4.94 14.7897 3.404 15.7257 2.276C16.6857 1.124 18.1377 0.547999 20.0817 0.547999C22.0257 0.547999 23.4777 1.124 24.4377 2.276C25.3977 3.404 25.8777 4.94 25.8777 6.884V19.916C25.8777 21.836 25.3977 23.372 24.4377 24.524C23.4777 25.676 22.0257 26.252 20.0817 26.252C18.1377 26.252 16.6857 25.676 15.7257 24.524C14.7897 23.372 14.3217 21.836 14.3217 19.916V6.884ZM17.0937 20.06C17.0937 21.212 17.3337 22.112 17.8137 22.76C18.3177 23.384 19.0737 23.696 20.0817 23.696C21.1137 23.696 21.8697 23.384 22.3497 22.76C22.8297 22.112 23.0697 21.212 23.0697 20.06V6.74C23.0697 5.588 22.8297 4.7 22.3497 4.076C21.8697 3.428 21.1137 3.104 20.0817 3.104C19.0737 3.104 18.3177 3.428 17.8137 4.076C17.3337 4.7 17.0937 5.588 17.0937 6.74V20.06ZM34.0378 0.547999C35.9818 0.547999 37.4098 1.124 38.3218 2.276C39.2578 3.428 39.7258 4.964 39.7258 6.884V7.532C39.7258 8.828 39.4618 9.932 38.9338 10.844C38.4298 11.732 37.6618 12.368 36.6298 12.752C37.7098 13.112 38.4898 13.748 38.9698 14.66C39.4738 15.572 39.7258 16.664 39.7258 17.936V19.916C39.7258 21.836 39.2578 23.372 38.3218 24.524C37.4098 25.676 35.9818 26.252 34.0378 26.252C32.1178 26.252 30.6898 25.676 29.7538 24.524C28.8418 23.372 28.3858 21.836 28.3858 19.916V17.468H31.0138V20.06C31.0138 21.212 31.2538 22.112 31.7338 22.76C32.2138 23.384 32.9578 23.696 33.9658 23.696C34.9978 23.696 35.7418 23.372 36.1978 22.724C36.6778 22.076 36.9178 21.116 36.9178 19.844V17.864C36.9178 15.368 35.8378 14.12 33.6778 14.12H32.4898V11.6H33.8218C34.7578 11.6 35.5018 11.3 36.0538 10.7C36.6298 10.1 36.9178 9.248 36.9178 8.144V6.992C36.9178 5.696 36.6778 4.724 36.1978 4.076C35.7418 3.428 34.9978 3.104 33.9658 3.104C32.9578 3.104 32.2138 3.428 31.7338 4.076C31.2538 4.7 31.0138 5.588 31.0138 6.74V8.432H28.4218V6.848C28.4218 4.904 28.8658 3.368 29.7538 2.24C30.6658 1.112 32.0938 0.547999 34.0378 0.547999ZM51.7397 25.964H49.0397L44.8637 5.912V26H42.4157V0.799998H46.3397L50.4797 20.924L54.4757 0.799998H58.3997V26H55.7357V5.732L51.7397 25.964ZM61.0795 6.884C61.0795 4.94 61.5475 3.404 62.4835 2.276C63.4435 1.124 64.8955 0.547999 66.8395 0.547999C68.7835 0.547999 70.2355 1.124 71.1955 2.276C72.1555 3.404 72.6355 4.94 72.6355 6.884V19.916C72.6355 21.836 72.1555 23.372 71.1955 24.524C70.2355 25.676 68.7835 26.252 66.8395 26.252C64.8955 26.252 63.4435 25.676 62.4835 24.524C61.5475 23.372 61.0795 21.836 61.0795 19.916V6.884ZM63.8515 20.06C63.8515 21.212 64.0915 22.112 64.5715 22.76C65.0755 23.384 65.8315 23.696 66.8395 23.696C67.8715 23.696 68.6275 23.384 69.1075 22.76C69.5875 22.112 69.8275 21.212 69.8275 20.06V6.74C69.8275 5.588 69.5875 4.7 69.1075 4.076C68.6275 3.428 67.8715 3.104 66.8395 3.104C65.8315 3.104 65.0755 3.428 64.5715 4.076C64.0915 4.7 63.8515 5.588 63.8515 6.74V20.06ZM87.5997 14.12L86.2677 16.496V26H83.4957V16.496L82.1997 14.084L77.3757 26H74.4957L80.2557 11.492L74.6397 0.799998H77.4477L83.4957 12.392V0.799998H86.2677V12.392L92.3517 0.799998H95.1597L89.5797 11.42L95.3037 26H92.4237L87.5997 14.12ZM100.174 14.66V26H97.3658V0.799998H100.174V12.14H106.366V0.799998H109.174V26H106.366V14.66H100.174ZM111.845 6.884C111.845 4.94 112.313 3.404 113.249 2.276C114.209 1.124 115.661 0.547999 117.605 0.547999C119.549 0.547999 121.001 1.124 121.961 2.276C122.921 3.404 123.401 4.94 123.401 6.884V19.916C123.401 21.836 122.921 23.372 121.961 24.524C121.001 25.676 119.549 26.252 117.605 26.252C115.661 26.252 114.209 25.676 113.249 24.524C112.313 23.372 111.845 21.836 111.845 19.916V6.884ZM114.617 20.06C114.617 21.212 114.857 22.112 115.337 22.76C115.841 23.384 116.597 23.696 117.605 23.696C118.637 23.696 119.393 23.384 119.873 22.76C120.353 22.112 120.593 21.212 120.593 20.06V6.74C120.593 5.588 120.353 4.7 119.873 4.076C119.393 3.428 118.637 3.104 117.605 3.104C116.597 3.104 115.841 3.428 115.337 4.076C114.857 4.7 114.617 5.588 114.617 6.74V20.06ZM135.017 11.96V14.48H128.861V23.444H136.421V26H126.053V0.799998H136.421V3.356H128.861V11.96H135.017ZM153.904 25.964H151.204L147.028 5.912V26H144.58V0.799998H148.504L152.644 20.924L156.64 0.799998H160.564V26H157.9V5.732L153.904 25.964ZM172.424 11.96V14.48H166.268V23.444H173.828V26H163.46V0.799998H173.828V3.356H166.268V11.96H172.424ZM181.868 0.547999C183.812 0.547999 185.24 1.124 186.152 2.276C187.088 3.428 187.556 4.964 187.556 6.884V9.152H184.892V6.74C184.892 5.588 184.652 4.7 184.172 4.076C183.716 3.428 182.972 3.104 181.94 3.104C180.932 3.104 180.188 3.428 179.708 4.076C179.228 4.7 178.988 5.588 178.988 6.74V20.06C178.988 21.212 179.228 22.112 179.708 22.76C180.188 23.384 180.932 23.696 181.94 23.696C182.972 23.696 183.716 23.384 184.172 22.76C184.652 22.112 184.892 21.212 184.892 20.06V16.784H187.556V19.916C187.556 21.836 187.088 23.372 186.152 24.524C185.24 25.676 183.812 26.252 181.868 26.252C179.948 26.252 178.52 25.676 177.584 24.524C176.672 23.372 176.216 21.836 176.216 19.916V6.884C176.216 5.924 176.324 5.06 176.54 4.292C176.78 3.5 177.128 2.828 177.584 2.276C178.064 1.724 178.652 1.304 179.348 1.016C180.068 0.704 180.908 0.547999 181.868 0.547999ZM193.96 26V3.356H189.316V0.799998H201.412V3.356H196.768V26H193.96ZM203.287 6.884C203.287 4.94 203.755 3.404 204.691 2.276C205.651 1.124 207.103 0.547999 209.047 0.547999C210.991 0.547999 212.443 1.124 213.403 2.276C214.363 3.404 214.843 4.94 214.843 6.884V19.916C214.843 21.836 214.363 23.372 213.403 24.524C212.443 25.676 210.991 26.252 209.047 26.252C207.103 26.252 205.651 25.676 204.691 24.524C203.755 23.372 203.287 21.836 203.287 19.916V6.884ZM206.059 20.06C206.059 21.212 206.299 22.112 206.779 22.76C207.283 23.384 208.039 23.696 209.047 23.696C210.079 23.696 210.835 23.384 211.314 22.76C211.795 22.112 212.035 21.212 212.035 20.06V6.74C212.035 5.588 211.795 4.7 211.314 4.076C210.835 3.428 210.079 3.104 209.047 3.104C208.039 3.104 207.283 3.428 206.779 4.076C206.299 4.7 206.059 5.588 206.059 6.74V20.06ZM235.505 29.456V26H225.209V29.456H222.509V23.516H224.129C224.561 23.036 224.837 22.496 224.957 21.896C225.101 21.296 225.197 20.612 225.245 19.844L226.217 0.799998H236.333V23.516H238.241V29.456H235.505ZM227.981 19.808C227.933 20.72 227.825 21.464 227.657 22.04C227.513 22.616 227.237 23.108 226.829 23.516H233.489V3.356H228.809L227.981 19.808ZM246.062 3.356L245.486 19.736C245.438 20.744 245.33 21.632 245.162 22.4C244.994 23.168 244.718 23.828 244.334 24.38C243.95 24.908 243.434 25.316 242.786 25.604C242.162 25.892 241.37 26.036 240.41 26.036H239.942V23.48C240.518 23.48 240.986 23.408 241.346 23.264C241.706 23.12 241.982 22.904 242.174 22.616C242.39 22.304 242.534 21.92 242.606 21.464C242.678 21.008 242.726 20.48 242.75 19.88L243.434 0.799998H253.694V26H250.886V3.356H246.062ZM263.21 15.236C262.034 15.236 261.122 15.512 260.474 16.064C259.85 16.592 259.538 17.564 259.538 18.98V22.94C259.538 23.78 259.502 24.416 259.43 24.848C259.358 25.256 259.238 25.64 259.07 26H256.226C256.442 25.568 256.574 25.1 256.622 24.596C256.694 24.068 256.73 23.528 256.73 22.976V19.052C256.73 17.684 256.958 16.556 257.414 15.668C257.894 14.756 258.71 14.132 259.862 13.796C257.798 13.124 256.766 11.396 256.766 8.612V6.56C256.766 4.688 257.198 3.26 258.062 2.276C258.95 1.292 260.39 0.799998 262.382 0.799998H267.998V26H265.19V15.236H263.21ZM262.454 3.356C261.398 3.356 260.642 3.644 260.186 4.22C259.754 4.796 259.538 5.66 259.538 6.812V9.224C259.538 10.592 259.85 11.516 260.474 11.996C261.098 12.452 261.962 12.68 263.066 12.68H265.19V3.356H262.454ZM281.96 0.799998C283.952 0.799998 285.392 1.352 286.28 2.456C287.168 3.536 287.612 5.036 287.612 6.956V9.98C287.612 11.996 287.132 13.52 286.172 14.552C285.236 15.56 283.76 16.064 281.744 16.064H279.26V26H276.452V0.799998H281.96ZM281.744 13.544C282.8 13.544 283.58 13.292 284.084 12.788C284.588 12.26 284.84 11.384 284.84 10.16V6.812C284.84 5.66 284.612 4.796 284.156 4.22C283.724 3.644 282.992 3.356 281.96 3.356H279.26V13.544H281.744ZM298.775 11.96V14.48H292.619V23.444H300.179V26H289.811V0.799998H300.179V3.356H292.619V11.96H298.775ZM307.068 15.056L305.592 17.54V26H302.784V0.799998H305.592V12.968L312.288 0.799998H315.132L308.76 12.284L315.348 26H312.468L307.068 15.056ZM322.878 3.356L322.302 19.736C322.254 20.744 322.146 21.632 321.978 22.4C321.81 23.168 321.534 23.828 321.15 24.38C320.766 24.908 320.25 25.316 319.602 25.604C318.978 25.892 318.186 26.036 317.226 26.036H316.758V23.48C317.334 23.48 317.802 23.408 318.162 23.264C318.522 23.12 318.798 22.904 318.99 22.616C319.206 22.304 319.35 21.92 319.422 21.464C319.494 21.008 319.542 20.48 319.566 19.88L320.25 0.799998H330.51V26H327.702V3.356H322.878ZM336.354 20.924L335.382 26H332.79L337.614 0.799998H341.682L346.506 26H343.698L342.726 20.924H336.354ZM336.714 18.512H342.33L339.486 3.968L336.714 18.512ZM357.986 25.964H355.286L351.11 5.912V26H348.662V0.799998H352.586L356.726 20.924L360.722 0.799998H364.646V26H361.982V5.732L357.986 25.964ZM372.834 10.736C374.85 10.736 376.326 11.252 377.262 12.284C378.222 13.292 378.702 14.804 378.702 16.82V19.844C378.702 21.764 378.246 23.276 377.334 24.38C376.446 25.46 375.018 26 373.05 26H367.542V0.799998H370.35V10.736H372.834ZM383.814 0.799998V26H381.042V0.799998H383.814ZM373.05 23.444C374.082 23.444 374.814 23.156 375.246 22.58C375.702 22.004 375.93 21.14 375.93 19.988V16.64C375.93 15.416 375.678 14.552 375.174 14.048C374.67 13.52 373.89 13.256 372.834 13.256H370.35V23.444H373.05Z" fill="#2B2B2B"/>
</svg>
